<svg width="58" height="50" viewBox="0 0 58 50" fill="none" xmlns="http://www.w3.org/2000/svg">
<path d="M10.5 0L12.9342 4.21053H45.0658L47.5 0H10.5Z" fill="white"/>
<path d="M17.8629 12.7358L15.3684 8.42105H42.6316L29 32L24.0099 23.3684H29.1057L35.2371 12.6316L17.8629 12.7358Z" fill="white"/>
<path d="M2.472 47.064C2.04533 47.064 1.63733 47 1.248 46.872C0.858667 46.7387 0.552 46.568 0.328 46.36L0.624 45.736C0.837333 45.9227 1.10933 46.0773 1.44 46.2C1.77067 46.3227 2.11467 46.384 2.472 46.384C2.79733 46.384 3.06133 46.3467 3.264 46.272C3.46667 46.1973 3.616 46.096 3.712 45.968C3.808 45.8347 3.856 45.6853 3.856 45.52C3.856 45.328 3.792 45.1733 3.664 45.056C3.54133 44.9387 3.37867 44.8453 3.176 44.776C2.97867 44.7013 2.76 44.6373 2.52 44.584C2.28 44.5307 2.03733 44.4693 1.792 44.4C1.552 44.3253 1.33067 44.232 1.128 44.12C0.930667 44.008 0.770667 43.8587 0.648 43.672C0.525333 43.48 0.464 43.2347 0.464 42.936C0.464 42.648 0.538667 42.384 0.688 42.144C0.842667 41.8987 1.07733 41.704 1.392 41.56C1.712 41.4107 2.11733 41.336 2.608 41.336C2.93333 41.336 3.256 41.3787 3.576 41.464C3.896 41.5493 4.17333 41.672 4.408 41.832L4.144 42.472C3.904 42.312 3.65067 42.1973 3.384 42.128C3.11733 42.0533 2.85867 42.016 2.608 42.016C2.29333 42.016 2.03467 42.056 1.832 42.136C1.62933 42.216 1.48 42.3227 1.384 42.456C1.29333 42.5893 1.248 42.7387 1.248 42.904C1.248 43.1013 1.30933 43.2587 1.432 43.376C1.56 43.4933 1.72267 43.5867 1.92 43.656C2.12267 43.7253 2.344 43.7893 2.584 43.848C2.824 43.9013 3.064 43.9627 3.304 44.032C3.54933 44.1013 3.77067 44.192 3.968 44.304C4.17067 44.416 4.33333 44.5653 4.456 44.752C4.57867 44.9387 4.64 45.1787 4.64 45.472C4.64 45.7547 4.56267 46.0187 4.408 46.264C4.25333 46.504 4.01333 46.6987 3.688 46.848C3.368 46.992 2.96267 47.064 2.472 47.064ZM8.80075 47L11.3368 41.4H12.1288L14.6728 47H13.8328L11.5688 41.848H11.8888L9.62475 47H8.80075ZM9.88075 45.6L10.0968 44.96H13.2488L13.4808 45.6H9.88075ZM21.774 47.064C21.3473 47.064 20.9527 46.9947 20.59 46.856C20.2327 46.712 19.9207 46.512 19.654 46.256C19.3927 45.9947 19.1873 45.6907 19.038 45.344C18.8887 44.9973 18.814 44.616 18.814 44.2C18.814 43.784 18.8887 43.4027 19.038 43.056C19.1873 42.7093 19.3953 42.408 19.662 42.152C19.9287 41.8907 20.2407 41.6907 20.598 41.552C20.9607 41.408 21.3553 41.336 21.782 41.336C22.214 41.336 22.6113 41.4107 22.974 41.56C23.342 41.704 23.654 41.92 23.91 42.208L23.39 42.712C23.1767 42.488 22.9367 42.3227 22.67 42.216C22.4033 42.104 22.118 42.048 21.814 42.048C21.4993 42.048 21.206 42.1013 20.934 42.208C20.6673 42.3147 20.4353 42.464 20.238 42.656C20.0407 42.848 19.886 43.0773 19.774 43.344C19.6673 43.6053 19.614 43.8907 19.614 44.2C19.614 44.5093 19.6673 44.7973 19.774 45.064C19.886 45.3253 20.0407 45.552 20.238 45.744C20.4353 45.936 20.6673 46.0853 20.934 46.192C21.206 46.2987 21.4993 46.352 21.814 46.352C22.118 46.352 22.4033 46.2987 22.67 46.192C22.9367 46.08 23.1767 45.9093 23.39 45.68L23.91 46.184C23.654 46.472 23.342 46.6907 22.974 46.84C22.6113 46.9893 22.2113 47.064 21.774 47.064ZM27.9104 47L30.4464 41.4H31.2384L33.7824 47H32.9424L30.6784 41.848H30.9984L28.7344 47H27.9104ZM28.9904 45.6L29.2064 44.96H32.3584L32.5904 45.6H28.9904ZM38.4578 47V41.4H39.2578V46.304H42.2898V47H38.4578ZM47.0478 47V41.4H47.8478V47H47.0478ZM54.9964 47.064C54.5697 47.064 54.1617 47 53.7724 46.872C53.383 46.7387 53.0764 46.568 52.8524 46.36L53.1484 45.736C53.3617 45.9227 53.6337 46.0773 53.9644 46.2C54.295 46.3227 54.639 46.384 54.9964 46.384C55.3217 46.384 55.5857 46.3467 55.7884 46.272C55.991 46.1973 56.1404 46.096 56.2364 45.968C56.3324 45.8347 56.3804 45.6853 56.3804 45.52C56.3804 45.328 56.3164 45.1733 56.1884 45.056C56.0657 44.9387 55.903 44.8453 55.7004 44.776C55.503 44.7013 55.2844 44.6373 55.0444 44.584C54.8044 44.5307 54.5617 44.4693 54.3164 44.4C54.0764 44.3253 53.855 44.232 53.6524 44.12C53.455 44.008 53.295 43.8587 53.1724 43.672C53.0497 43.48 52.9884 43.2347 52.9884 42.936C52.9884 42.648 53.063 42.384 53.2124 42.144C53.367 41.8987 53.6017 41.704 53.9164 41.56C54.2364 41.4107 54.6417 41.336 55.1324 41.336C55.4577 41.336 55.7804 41.3787 56.1004 41.464C56.4204 41.5493 56.6977 41.672 56.9324 41.832L56.6684 42.472C56.4284 42.312 56.175 42.1973 55.9084 42.128C55.6417 42.0533 55.383 42.016 55.1324 42.016C54.8177 42.016 54.559 42.056 54.3564 42.136C54.1537 42.216 54.0044 42.3227 53.9084 42.456C53.8177 42.5893 53.7724 42.7387 53.7724 42.904C53.7724 43.1013 53.8337 43.2587 53.9564 43.376C54.0844 43.4933 54.247 43.5867 54.4444 43.656C54.647 43.7253 54.8684 43.7893 55.1084 43.848C55.3484 43.9013 55.5884 43.9627 55.8284 44.032C56.0737 44.1013 56.295 44.192 56.4924 44.304C56.695 44.416 56.8577 44.5653 56.9804 44.752C57.103 44.9387 57.1644 45.1787 57.1644 45.472C57.1644 45.7547 57.087 46.0187 56.9324 46.264C56.7777 46.504 56.5377 46.6987 56.2124 46.848C55.8924 46.992 55.487 47.064 54.9964 47.064Z" fill="white"/>
</svg>
